<svg id="gradient_green" data-name="gradient green" xmlns="http://www.w3.org/2000/svg" xmlns:xlink="http://www.w3.org/1999/xlink" viewBox="0 0 190 190"><defs><style>.cls-1{fill:url(#linear-gradient);}.cls-2{fill:url(#linear-gradient-2);}.cls-3{fill:url(#linear-gradient-3);}.cls-4{fill:url(#linear-gradient-4);}.cls-5{fill:url(#linear-gradient-5);}.cls-6{fill:url(#linear-gradient-6);}.cls-7{fill:url(#linear-gradient-7);}.cls-8{fill:url(#linear-gradient-8);}.cls-9{fill:url(#linear-gradient-9);}.cls-10{fill:url(#linear-gradient-10);}</style><linearGradient id="linear-gradient" x1="67.47" y1="111.77" x2="119.18" y2="111.77" gradientUnits="userSpaceOnUse"><stop offset="0" stop-color="#00c895"/><stop offset="1" stop-color="#00c895"/></linearGradient><linearGradient id="linear-gradient-2" x1="76.36" y1="76.65" x2="112.59" y2="76.65" xlink:href="#linear-gradient"/><linearGradient id="linear-gradient-3" x1="79.09" y1="101.97" x2="97.73" y2="101.97" xlink:href="#linear-gradient"/><linearGradient id="linear-gradient-4" x1="65.71" y1="63.95" x2="123.24" y2="63.95" xlink:href="#linear-gradient"/><linearGradient id="linear-gradient-5" x1="39.65" y1="26.49" x2="115.9" y2="26.49" xlink:href="#linear-gradient"/><linearGradient id="linear-gradient-6" x1="0" y1="77.54" x2="47.64" y2="77.54" xlink:href="#linear-gradient"/><linearGradient id="linear-gradient-7" x1="119.67" y1="43.93" x2="167.14" y2="43.93" xlink:href="#linear-gradient"/><linearGradient id="linear-gradient-8" x1="143.26" y1="115" x2="190" y2="115" xlink:href="#linear-gradient"/><linearGradient id="linear-gradient-9" x1="21.69" y1="145.97" x2="69.2" y2="145.97" xlink:href="#linear-gradient"/><linearGradient id="linear-gradient-10" x1="73.71" y1="167.62" x2="148.56" y2="167.62" xlink:href="#linear-gradient"/></defs><title>icon-green-IoT-4</title><path class="cls-1" d="M67.47,111.76A25.86,25.86,0,1,0,93.33,85.91,25.89,25.89,0,0,0,67.47,111.76ZM93.33,92.61a19.16,19.16,0,1,1-19.16,19.15A19.17,19.17,0,0,1,93.33,92.61Z"/><path class="cls-2" d="M81.74,80.61a19.16,19.16,0,0,1,25.13,1.71,3.35,3.35,0,0,0,4.74-4.74,25.87,25.87,0,0,0-33.92-2.31,3.35,3.35,0,0,0,4,5.34Z"/><path class="cls-3" d="M81.3,108.54a3.26,3.26,0,0,0,1.14.2,3.34,3.34,0,0,0,3.15-2.21,7,7,0,0,1,8.08-4.48,3.35,3.35,0,1,0,1.4-6.56,13.75,13.75,0,0,0-15.78,8.76A3.35,3.35,0,0,0,81.3,108.54Z"/><path class="cls-4" d="M122.26,72a3.35,3.35,0,0,0,0-4.74A42.1,42.1,0,0,0,67,63.5a3.35,3.35,0,0,0,4.06,5.34A35.38,35.38,0,0,1,117.52,72a3.36,3.36,0,0,0,4.74,0Z"/><path class="cls-5" d="M54.27,41.11A14.63,14.63,0,0,0,68.49,29.83h44.06a3.35,3.35,0,1,0,0-6.7H68.49a14.62,14.62,0,1,0-14.22,18Zm0-22.55a7.93,7.93,0,1,1-7.92,7.92A7.93,7.93,0,0,1,54.27,18.56Z"/><path class="cls-6" d="M27.22,104.43a14.63,14.63,0,0,0-2.47-18L47.17,48.52a3.35,3.35,0,1,0-5.77-3.41L19,83a14.61,14.61,0,1,0,8.24,21.39ZM7,99a7.93,7.93,0,1,1,3.64,4.84A7.85,7.85,0,0,1,7,99Z"/><path class="cls-7" d="M130.61,38.58a14.84,14.84,0,0,0,3.72.48,14.43,14.43,0,0,0,4.27-.67l22.3,38a3.34,3.34,0,0,0,2.89,1.65,3.4,3.4,0,0,0,1.7-.46A3.34,3.34,0,0,0,166.68,73L144.39,35a14.61,14.61,0,1,0-13.78,3.58Zm7.7-7.32a7.92,7.92,0,1,1-4-14.75,7.7,7.7,0,0,1,2,.26,7.91,7.91,0,0,1,2,14.49Z"/><path class="cls-8" d="M182.6,82.57h0A14.62,14.62,0,0,0,165.45,106L143.7,144.32a3.34,3.34,0,0,0,1.25,4.57,3.43,3.43,0,0,0,1.65.44,3.37,3.37,0,0,0,2.92-1.7l21.76-38.32a14.45,14.45,0,0,0,4.08.61,15,15,0,0,0,3.91-.53,14.63,14.63,0,0,0,3.33-26.82Zm-11.13,19.61a7.92,7.92,0,0,1,3.93-14.81,7.84,7.84,0,0,1,3.89,1,7.92,7.92,0,1,1-7.82,13.78Z"/><path class="cls-9" d="M58.25,151.31a14.55,14.55,0,0,0-8,.19l-22.33-38a3.35,3.35,0,0,0-5.77,3.4l22.32,38A14.62,14.62,0,0,0,62,178.07h0a14.63,14.63,0,0,0-3.74-26.76Zm.34,21a7.92,7.92,0,1,1-2-14.5,7.92,7.92,0,0,1,2,14.5Z"/><path class="cls-10" d="M134.7,153.75h-.2a13.86,13.86,0,0,0-13.67,14.06,13.44,13.44,0,0,0,.14,1.7l-44,.63a3.35,3.35,0,0,0,0,6.7h0l46.69-.66a13.87,13.87,0,0,0,10.9,5.31h.19a13.88,13.88,0,0,0,13.67-14.07h0a13.86,13.86,0,0,0-13.86-13.67Zm.12,22.55a8.89,8.89,0,0,1-6.17-2.46,8.68,8.68,0,0,1,5.92-14.9h.13a8.69,8.69,0,0,1,8.67,8.55A8.69,8.69,0,0,1,134.82,176.3Z"/></svg>